<svg width="25" height="7" viewBox="0 0 25 7" fill="none" xmlns="http://www.w3.org/2000/svg">
    <path
            d="M0.369217 6.71533L0.369217 4.71533L3.03728 4.71533L3.03728 6.71533L0.369217 6.71533ZM0.369217 2.71533L0.369217 0.715332L3.03728 0.715332L3.03728 2.71533L0.369217 2.71533ZM5.70534 6.71533V4.71533L8.3734 4.71533V6.71533L5.70534 6.71533ZM5.70534 2.71533L5.70534 0.715332L8.3734 0.715332L8.3734 2.71533L5.70534 2.71533ZM11.0415 6.71533V4.71533L13.7095 4.71533V6.71533L11.0415 6.71533ZM11.0415 2.71533L11.0415 0.715332L13.7095 0.715332L13.7095 2.71533L11.0415 2.71533ZM16.3776 6.71533V4.71533L19.0456 4.71533V6.71533L16.3776 6.71533ZM16.3776 2.71533V0.715332L19.0456 0.715332V2.71533L16.3776 2.71533ZM21.7137 6.71533V4.71533L24.3818 4.71533V6.71533L21.7137 6.71533ZM21.7137 2.71533V0.715332L24.3818 0.715332V2.71533L21.7137 2.71533Z"
            fill="#DADADA"/>
</svg>
