<svg width="14" height="14" viewBox="0 0 14 14" fill="none" xmlns="http://www.w3.org/2000/svg">
<path d="M4.19992 0.332031H9.79992C11.9333 0.332031 13.6666 2.06536 13.6666 4.1987V9.7987C13.6666 10.8242 13.2592 11.8077 12.5341 12.5328C11.8089 13.258 10.8254 13.6654 9.79992 13.6654H4.19992C2.06659 13.6654 0.333252 11.932 0.333252 9.7987V4.1987C0.333252 3.17319 0.740632 2.18969 1.46577 1.46455C2.19091 0.739411 3.17442 0.332031 4.19992 0.332031ZM4.06659 1.66536C3.43007 1.66536 2.81962 1.91822 2.36953 2.36831C1.91944 2.8184 1.66659 3.42884 1.66659 4.06536V9.93203C1.66659 11.2587 2.73992 12.332 4.06659 12.332H9.93325C10.5698 12.332 11.1802 12.0792 11.6303 11.6291C12.0804 11.179 12.3333 10.5686 12.3333 9.93203V4.06536C12.3333 2.7387 11.2599 1.66536 9.93325 1.66536H4.06659ZM10.4999 2.66536C10.7209 2.66536 10.9329 2.75316 11.0892 2.90944C11.2455 3.06572 11.3333 3.27768 11.3333 3.4987C11.3333 3.71971 11.2455 3.93167 11.0892 4.08795C10.9329 4.24423 10.7209 4.33203 10.4999 4.33203C10.2789 4.33203 10.0669 4.24423 9.91066 4.08795C9.75438 3.93167 9.66659 3.71971 9.66659 3.4987C9.66659 3.27768 9.75438 3.06572 9.91066 2.90944C10.0669 2.75316 10.2789 2.66536 10.4999 2.66536ZM6.99992 3.66536C7.88397 3.66536 8.73182 4.01655 9.35694 4.64168C9.98206 5.2668 10.3333 6.11464 10.3333 6.9987C10.3333 7.88275 9.98206 8.7306 9.35694 9.35572C8.73182 9.98084 7.88397 10.332 6.99992 10.332C6.11586 10.332 5.26802 9.98084 4.6429 9.35572C4.01777 8.7306 3.66659 7.88275 3.66659 6.9987C3.66659 6.11464 4.01777 5.2668 4.6429 4.64168C5.26802 4.01655 6.11586 3.66536 6.99992 3.66536ZM6.99992 4.9987C6.46949 4.9987 5.96078 5.20941 5.5857 5.58448C5.21063 5.95956 4.99992 6.46827 4.99992 6.9987C4.99992 7.52913 5.21063 8.03784 5.5857 8.41291C5.96078 8.78798 6.46949 8.9987 6.99992 8.9987C7.53035 8.9987 8.03906 8.78798 8.41413 8.41291C8.78921 8.03784 8.99992 7.52913 8.99992 6.9987C8.99992 6.46827 8.78921 5.95956 8.41413 5.58448C8.03906 5.20941 7.53035 4.9987 6.99992 4.9987Z" fill="white"/>
</svg>
