<svg width="14" height="14" viewBox="0 0 14 14" fill="none" xmlns="http://www.w3.org/2000/svg">
<path fill-rule="evenodd" clip-rule="evenodd" d="M3.46523 13.4013H0.811518V4.85556H3.46523V13.4013ZM2.13671 3.68985C1.28814 3.68985 0.599854 2.98699 0.599854 2.13842C0.599854 1.28964 1.28793 0.601562 2.13671 0.601562C2.9855 0.601562 3.67357 1.28964 3.67357 2.13842C3.67357 2.98699 2.985 3.68985 2.13671 3.68985ZM13.3972 13.4013H10.7492V9.24134C10.7492 8.24991 10.7292 6.97848 9.36946 6.97848C7.98974 6.97848 7.77831 8.05562 7.77831 9.16991V13.4013H5.12746V4.85562H7.6726V6.02134H7.70974C8.06403 5.34991 8.92945 4.64134 10.2206 4.64134C12.9063 4.64134 13.4 6.40991 13.4 8.70705V13.4013L13.3972 13.4013Z" fill="white"/>
</svg>
