<svg width="21" height="21" viewBox="0 0 21 21" fill="none" xmlns="http://www.w3.org/2000/svg">
    <path fill-rule="evenodd" clip-rule="evenodd"
          d="M2.94727 9.67969C2.94727 5.81369 6.08127 2.67969 9.94727 2.67969C13.8133 2.67969 16.9473 5.81369 16.9473 9.67969C16.9473 13.5457 13.8133 16.6797 9.94727 16.6797C6.08127 16.6797 2.94727 13.5457 2.94727 9.67969ZM9.94727 0.679688C4.9767 0.679688 0.947266 4.70912 0.947266 9.67969C0.947266 14.6503 4.9767 18.6797 9.94727 18.6797C12.0792 18.6797 14.038 17.9384 15.5799 16.6996C15.6158 16.7531 15.6573 16.804 15.7046 16.8513L19.2402 20.3868C19.6307 20.7773 20.2639 20.7773 20.6544 20.3868C21.0449 19.9963 21.0449 19.3631 20.6544 18.9726L17.1189 15.437C17.0716 15.3898 17.0207 15.3482 16.9672 15.3123C18.206 13.7704 18.9473 11.8116 18.9473 9.67969C18.9473 4.70912 14.9178 0.679688 9.94727 0.679688Z"
          fill="#772BCB"/>
</svg>
