<svg width="14" height="13" viewBox="0 0 14 13" fill="none" xmlns="http://www.w3.org/2000/svg">
<path d="M13.9733 2.0013C13.4599 2.23464 12.9066 2.38797 12.3333 2.4613C12.9199 2.10797 13.3733 1.54797 13.5866 0.874635C13.0333 1.20797 12.4199 1.4413 11.7733 1.57464C11.2466 1.0013 10.5066 0.667969 9.66661 0.667969C8.09995 0.667969 6.81994 1.94797 6.81994 3.52797C6.81994 3.75464 6.84661 3.97464 6.89328 4.1813C4.51995 4.0613 2.40661 2.9213 0.999945 1.19464C0.753278 1.61464 0.613278 2.10797 0.613278 2.62797C0.613278 3.6213 1.11328 4.5013 1.88661 5.0013C1.41328 5.0013 0.973278 4.86797 0.586611 4.66797V4.68797C0.586611 6.07464 1.57328 7.23463 2.87994 7.49463C2.46043 7.60944 2.02001 7.62541 1.59328 7.5413C1.77435 8.10962 2.12897 8.60691 2.60729 8.96325C3.08561 9.3196 3.66358 9.5171 4.25994 9.52797C3.24903 10.3283 1.99594 10.7608 0.706611 10.7546C0.479945 10.7546 0.253278 10.7413 0.0266113 10.7146C1.29328 11.528 2.79994 12.0013 4.41328 12.0013C9.66661 12.0013 12.5533 7.6413 12.5533 3.8613C12.5533 3.73464 12.5533 3.61463 12.5466 3.48797C13.1066 3.08797 13.5866 2.5813 13.9733 2.0013Z" fill="white"/>
</svg>
